<svg width="29" height="29" viewBox="0 0 29 29" fill="none" xmlns="http://www.w3.org/2000/svg">
<path d="M0 21.4128V7.58721C0 3.41176 3.41176 0 7.58721 0H21.4128C25.5882 0 29 3.41176 29 7.58721V21.4128C29 25.5882 25.5882 29 21.4128 29H7.58721C3.41176 29 0 25.5882 0 21.4128Z" fill="#666666"/>
<path d="M22.2656 12.3975C22.2656 10.4734 20.7085 8.91626 18.7845 8.91626H9.87816C7.95409 8.91626 6.39697 10.4734 6.39697 12.3975V16.5431C6.39697 18.4672 7.95409 20.0243 9.87816 20.0243H18.7845C20.7085 20.0243 22.2656 18.4672 22.2656 16.5431V12.3975ZM17.029 14.7778L13.0321 16.7514C12.8734 16.8407 12.3477 16.7217 12.3477 16.5431V12.4867C12.3477 12.3082 12.8833 12.1892 13.042 12.2784L16.8604 14.3612C17.0191 14.4604 17.1877 14.6885 17.029 14.7778Z" fill="white"/>
</svg>
